# xmcd CD database file
#
# Track frame offsets:
#	150
#	22001
#	46015
#	68940
#	96986
#	118224
#	141325
#	165897
#	190545
#	216743
#	245482
#
# Disc length: 3601 seconds
#
# Revision: 1
# Processed by: cddbd v1.5.2PL0 Copyright (c) Steve Scherf et al.
# Submitted via: CDex 1.70beta2
#
DISCID=9f0e0f0b
DTITLE=Yellowjackets - Altered State
DYEAR=2005
DGENRE=Jazz
TTITLE0=Suite 15
TTITLE1=March Majestic
TTITLE2=The Hope
TTITLE3=Hunter's Point
TTITLE4=Mother Earth
TTITLE5=Youth Eternal
TTITLE6=Free day
TTITLE7=Cross Current
TTITLE8=Aha
TTITLE9=57 Chevy
TTITLE10=Unity
EXTD=YEAR: 2005
EXTT0=
EXTT1=
EXTT2=
EXTT3=
EXTT4=
EXTT5=
EXTT6=
EXTT7=
EXTT8=
EXTT9=
EXTT10=
PLAYORDER=
